# Blender v3.4.1 OBJ File: ''
# www.blender.org
mtllib outside.mtl
o Plane.001
v 2.000000 -0.000000 2.000000
v -2.000000 1.000000 2.000000
v -2.000000 -0.000000 2.000000
v -1.000000 -0.000000 1.474091
v -1.000000 -0.000000 0.264851
v 0.000000 -0.000000 0.264851
v 2.000000 1.000000 1.474091
v 2.000000 -0.000000 1.474091
v 0.000000 1.000000 0.264851
v -2.000000 1.000000 -0.829969
v -2.000000 1.000000 0.264875
v -1.000000 0.648305 0.264851
v -2.000000 0.000000 -0.829969
v 0.000000 1.000000 -0.829969
v 0.000000 0.000000 -0.829969
v -2.000000 0.648305 0.264875
v -2.000000 1.000000 1.474090
v -1.000000 0.648305 1.474091
v -2.000000 0.648305 1.474090
v 2.000000 1.000000 2.000000
v 2.000000 0.000000 -0.829969
v -2.000000 1.000000 1.474090
v -2.000000 1.000000 0.264875
v -1.000000 0.648305 0.264851
vt 0.000000 0.500000
vt 0.000000 0.500000
vt 0.000000 0.500000
vt 0.000000 0.000000
vt 0.000000 0.000000
vt 0.000000 0.000000
vt 0.000000 0.500000
vt 0.000000 0.500000
vt 0.000000 0.000000
vt 0.000000 1.000000
vt 0.000000 0.000000
vt 0.000000 0.000000
vt 0.000000 0.000000
vt 0.000000 0.000000
vt 0.000000 0.000000
vt 0.000000 0.500000
vt 0.000000 0.500000
vt 0.000000 0.500000
vt 0.000000 0.000000
vt 0.000000 0.000000
vt 0.000000 0.806563
vt 0.000000 0.500000
vt 0.000000 0.592918
vt 0.000000 0.000000
vt 0.000000 0.000000
vt 0.000000 0.500000
vt 0.000000 0.000000
vt 0.000000 0.000000
vt 0.000000 0.000000
vt 0.000000 0.592918
vt 0.000000 0.592918
vt 0.000000 0.806563
vt 0.000000 0.806563
vn 0.0000 0.0000 1.0000
vn 0.0000 -1.0000 -0.0000
vn 1.0000 0.0000 0.0000
vn 0.0000 1.0000 0.0000
vn 0.0000 0.0000 -1.0000
vn -1.0000 0.0000 0.0000
vn 0.0000 0.0000 0.0000
g Plane.001_Plane.001_Default_OBJ.001
usemtl Default_OBJ.001
s 1
f 1/1/1 2/2/1 3/3/1
f 4/4/2 5/5/2 6/6/2
f 7/7/3 1/1/3 8/8/3
f 9/9/4 10/10/4 11/11/4
f 9/9/1 12/12/1 6/6/1
f 13/13/5 14/14/5 15/15/5
f 4/16/6 12/17/6 5/18/6
f 9/9/3 15/15/3 14/14/3
f 5/18/2 4/16/2 3/3/2
f 16/19/6 17/20/6 11/11/6
f 16/21/4 18/22/4 12/17/4
f 3/3/6 19/23/6 16/21/6
f 8/24/5 4/4/5 18/25/5
f 17/20/4 20/26/4 7/27/4
f 1/1/1 20/26/1 2/2/1
f 15/15/2 21/28/2 6/6/2
f 21/28/2 8/24/2 6/6/2
f 8/24/2 4/4/2 6/6/2
f 7/7/3 20/26/3 1/1/3
f 9/9/4 14/14/4 10/10/4
f 9/9/1 11/11/1 12/12/1
f 11/11/1 16/19/1 12/12/1
f 12/12/1 5/5/1 6/6/1
f 13/13/5 10/10/5 14/14/5
f 4/16/6 18/22/6 12/17/6
f 9/9/3 6/6/3 15/15/3
f 13/13/2 15/15/2 5/18/2
f 15/15/2 6/6/2 5/18/2
f 8/8/2 1/1/2 4/16/2
f 1/1/2 3/3/2 4/16/2
f 13/13/2 5/18/2 3/3/2
f 16/19/6 19/29/6 17/20/6
f 16/21/4 19/23/4 18/22/4
f 2/2/7 22/30/7 17/31/7
f 2/2/6 17/31/6 19/23/6
f 10/10/6 13/13/6 16/21/6
f 13/13/6 3/3/6 16/21/6
f 16/21/4 11/32/7 23/33/4
f 3/3/6 2/2/6 19/23/6
f 16/21/6 23/33/6 10/10/6
f 19/29/5 17/20/5 18/25/5
f 17/20/5 7/27/5 18/25/5
f 7/27/5 8/24/5 18/25/5
f 17/20/4 2/2/4 20/26/4
l 12 24
