# Blender 3.4.1
# www.blender.org
mtllib s1.mtl
o Plane
v -2.000000 0.000000 2.000000
v -2.000000 1.000000 -0.829969
v 0.000000 1.000000 -0.829969
v 0.000000 0.000000 -0.829969
v 2.000000 0.000000 -0.829969
v -2.000000 1.000000 2.000000
v -1.000000 0.648305 0.264851
v -1.000000 0.000000 1.474091
v 2.000000 1.000000 2.000000
v 2.000000 0.000000 2.000000
v 2.000000 0.000000 1.474091
v 2.000000 1.000000 1.474091
v 0.000000 0.000000 0.264851
v -1.000000 0.000000 0.264851
v -2.000000 0.000000 -0.829969
v 0.000000 1.000000 0.264851
v -2.000000 1.000000 1.474090
v -2.000000 1.000000 0.264875
v -2.000000 1.000000 1.474090
v -2.000000 1.000000 0.264875
v -1.000000 0.648305 1.474091
v -1.000000 0.648305 0.264851
v -2.000000 0.648305 1.474090
v -2.000000 0.648305 0.264875
vn -0.0000 -0.0000 1.0000
vn -0.0000 -1.0000 -0.0000
vn 1.0000 -0.0000 -0.0000
vn -0.0000 1.0000 -0.0000
vn -0.0000 -0.0000 -1.0000
vn -1.0000 -0.0000 -0.0000
vt 0.000000 0.500000
vt 0.000000 1.000000
vt 0.000000 0.000000
vt 0.000000 0.000000
vt 0.000000 0.000000
vt 0.000000 0.500000
vt 0.000000 0.000000
vt 0.000000 0.500000
vt 0.000000 0.500000
vt 0.000000 0.500000
vt 0.000000 0.500000
vt 0.000000 0.000000
vt 0.000000 0.500000
vt 0.000000 0.000000
vt 0.000000 0.000000
vt 0.000000 0.000000
vt 0.000000 0.500000
vt 0.000000 0.000000
vt 0.000000 0.000000
vt 0.000000 0.592918
vt 0.000000 0.806563
vt 0.000000 0.592918
vt 0.000000 0.000000
vt 0.000000 0.000000
vt 0.000000 0.806563
vt 0.000000 0.500000
vt 0.000000 0.000000
vt 0.000000 0.000000
vt 0.000000 0.500000
vt 0.000000 0.592918
vt 0.000000 0.000000
vt 0.000000 0.000000
vt 0.000000 0.806563
s 0
f 10/10/1 6/6/1 1/1/1
f 8/7/2 14/16/2 13/15/2
f 12/13/3 10/10/3 11/11/3
f 16/19/4 2/2/4 20/24/4
f 16/19/1 22/28/1 13/15/1
f 15/18/5 3/3/5 4/4/5
f 8/8/6 22/29/6 14/17/6
f 16/19/3 4/4/3 3/3/3
f 14/17/2 8/8/2 1/1/2
f 24/32/6 19/23/6 20/24/6
f 24/33/4 21/26/4 22/29/4
f 1/1/6 23/30/6 24/33/6
f 11/12/5 8/7/5 21/27/5
f 19/23/4 9/9/4 12/14/4
f 10/10/1 9/9/1 6/6/1
f 4/4/2 5/5/2 13/15/2
f 5/5/2 11/12/2 13/15/2
f 11/12/2 8/7/2 13/15/2
f 12/13/3 9/9/3 10/10/3
f 16/19/4 3/3/4 2/2/4
f 16/19/1 20/24/1 22/28/1
f 20/24/1 24/32/1 22/28/1
f 22/28/1 14/16/1 13/15/1
f 15/18/5 2/2/5 3/3/5
f 8/8/6 21/26/6 22/29/6
f 16/19/3 13/15/3 4/4/3
f 15/18/2 4/4/2 14/17/2
f 4/4/2 13/15/2 14/17/2
f 11/11/2 10/10/2 8/8/2
f 10/10/2 1/1/2 8/8/2
f 15/18/2 14/17/2 1/1/2
f 24/32/6 23/31/6 19/23/6
f 24/33/4 23/30/4 21/26/4
f 6/6/4 17/20/4 19/22/4
f 6/6/6 19/22/6 23/30/6
f 2/2/6 15/18/6 24/33/6
f 15/18/6 1/1/6 24/33/6
f 24/33/4 20/25/4 18/21/4
f 1/1/6 6/6/6 23/30/6
f 24/33/6 18/21/6 2/2/6
f 23/31/5 19/23/5 21/27/5
f 19/23/5 12/14/5 21/27/5
f 12/14/5 11/12/5 21/27/5
f 19/23/4 6/6/4 9/9/4
l 22 7
